<svg width="181" height="188" viewBox="0 0 181 188" fill="none" xmlns="http://www.w3.org/2000/svg">
<circle cx="88.9001" cy="75.6755" r="75" fill="#E6AC8B" fill-opacity="0.4"/>
<path d="M56.983 73.5063C57.4253 74.2902 57.6062 75.8335 57.5258 78.1361C57.4469 80.396 56.9108 82.2985 55.9176 83.8434C55.0216 85.0502 53.1491 86.7139 50.3 88.8344C47.4524 90.9123 45.3677 91.9282 44.0459 91.882C41.7006 91.8001 39.0567 90.491 36.1141 87.9548C33.173 85.3759 31.3487 82.6012 30.6413 79.6307L37.9107 75.0176C38.5229 77.0455 39.5463 78.9171 40.9806 80.6322C42.415 82.3473 43.4306 83.2152 44.0276 83.2361C44.6672 83.2584 45.3348 83.0896 46.0305 82.7297C46.7703 82.3286 47.3395 81.9215 47.7381 81.5085C48.3163 80.8456 48.6307 79.7893 48.6813 78.3395C48.7319 76.8897 48.4221 75.9824 47.7517 75.6174C46.9242 74.8627 45.2948 73.8453 42.8633 72.565C40.4745 71.2861 38.2592 69.928 36.2174 68.4905C34.1772 67.0104 32.8817 65.599 32.3308 64.2563C31.8227 62.9151 31.6051 61.1998 31.678 59.1104C31.7525 56.9784 32.2863 55.1399 33.2795 53.5949C34.1755 52.3881 36.0473 50.7458 38.8949 48.6679C41.7439 46.5474 43.8294 45.5102 45.1513 45.5564C47.4965 45.6382 50.1397 46.9686 53.0808 49.5475C56.0234 52.0838 57.8484 54.8371 58.5559 57.8076L51.2842 62.4847C50.672 60.4568 49.6486 58.5852 48.2143 56.8701C46.7814 55.1124 45.7452 54.2224 45.1056 54.2C44.5086 54.1792 43.841 54.348 43.1027 54.7064C42.3644 55.0649 41.7503 55.5344 41.2604 56.115C40.8146 56.6544 40.5672 57.6277 40.5181 59.0349C40.4704 60.3994 40.8648 61.331 41.7012 61.8299C42.3626 62.4507 43.8863 63.4431 46.2721 64.8072C52.3785 68.4359 55.9488 71.3356 56.983 73.5063ZM60.9231 72.2991L61.133 66.2867C61.3192 60.9567 61.8647 57.5603 62.7696 56.0976C63.6746 54.635 65.5575 52.6729 68.4185 50.2112C71.3221 47.751 73.4562 46.5448 74.8207 46.5924C77.1659 46.6743 79.8046 48.1326 82.7368 50.9674C85.6705 53.7594 87.4859 56.79 88.1829 60.059L80.9112 64.736C80.3094 62.4096 79.2957 60.2609 77.8703 58.29C76.4464 56.2764 75.4359 55.2592 74.839 55.2383C73.7729 55.2011 72.5212 56.2034 71.0837 58.2451C70.5011 59.0359 70.1264 61.8192 69.9596 66.595L69.7497 72.6073C69.5785 77.511 69.7581 80.3136 70.2886 81.0152C71.5801 83.1523 72.7589 84.2394 73.8249 84.2766C74.4219 84.2975 75.4956 83.5025 77.0461 81.8916C78.5981 80.2381 79.751 78.3999 80.5047 76.3769L87.4301 81.6138C86.5172 84.5277 84.5038 87.1684 81.39 89.5359C78.2776 91.8607 75.5488 92.9821 73.2036 92.9002C71.8391 92.8526 69.7944 91.5004 67.0694 88.8437C64.3871 86.1884 62.6456 84.0997 61.8449 82.5775C61.0442 81.0553 60.7369 77.6292 60.9231 72.2991ZM117.259 75.6112C117.701 76.3951 117.882 77.9383 117.802 80.2409C117.723 82.5009 117.187 84.4033 116.193 85.9483C115.297 87.1551 113.425 88.8188 110.576 90.9393C107.728 93.0172 105.643 94.033 104.322 93.9869C101.976 93.905 99.3325 92.5959 96.3898 90.0597C93.4487 87.4808 91.6244 84.7061 90.917 81.7356L98.1864 77.1225C98.7987 79.1504 99.822 81.0219 101.256 82.737C102.691 84.4521 103.706 85.3201 104.303 85.341C104.943 85.3633 105.611 85.1945 106.306 84.8346C107.046 84.4335 107.615 84.0264 108.014 83.6134C108.592 82.9505 108.906 81.8942 108.957 80.4444C109.008 78.9946 108.698 78.0872 108.028 77.7223C107.2 76.9676 105.571 75.9501 103.139 74.6698C100.75 73.391 98.5349 72.0329 96.4932 70.5954C94.4529 69.1153 93.1574 67.7039 92.6066 66.3612C92.0984 65.02 91.8808 63.3047 91.9538 61.2153C92.0282 59.0832 92.5621 57.2448 93.5553 55.6998C94.4513 54.493 96.323 52.8507 99.1706 50.7728C102.02 48.6523 104.105 47.6151 105.427 47.6612C107.772 47.7431 110.415 49.0735 113.357 51.6524C116.299 54.1886 118.124 56.942 118.832 59.9125L111.56 64.5896C110.948 62.5616 109.924 60.6901 108.49 58.975C107.057 57.2173 106.021 56.3272 105.381 56.3049C104.784 56.2841 104.117 56.4529 103.378 56.8113C102.64 57.1698 102.026 57.6393 101.536 58.2199C101.09 58.7593 100.843 59.7326 100.794 61.1397C100.746 62.5042 101.141 63.4359 101.977 63.9347C102.638 64.5555 104.162 65.548 106.548 66.9121C112.654 70.5407 116.225 73.4404 117.259 75.6112ZM131.899 66.9008L143.348 67.3006L143.078 75.0399L131.629 74.6401L131.218 86.4089L146.505 86.9427L146.234 94.682L122.121 93.84L123.497 54.44L132.538 48.608L146.801 49.106L146.529 56.9093L134.632 56.4938L132.207 58.0742L131.899 66.9008Z" fill="#865746" fill-opacity="0.72"/>
<path d="M31.5051 111.691L30.9693 119.353L22.6696 118.772L20.0803 155.802L11.2698 155.186L13.8591 118.156L5.55939 117.576L6.09512 109.914L31.5051 111.691ZM51.0179 154.565C47.8025 157.12 45.4287 158.344 43.8964 158.237C42.3641 158.13 40.1625 156.586 37.2914 153.605C34.4659 150.585 32.7524 148.176 32.1508 146.381C31.76 145.241 31.7209 142.437 32.0334 137.968L32.5602 130.434C32.8727 125.965 33.3017 123.194 33.8473 122.12C34.6929 120.426 36.7234 118.301 39.9388 115.745C43.1998 113.151 45.5964 111.907 47.1286 112.014C48.6609 112.121 50.8398 113.685 53.6653 116.705C56.5364 119.686 58.2727 122.074 58.8742 123.87C59.265 125.009 59.3042 127.814 58.9916 132.283L58.4648 139.816C58.1523 144.285 57.7233 147.057 57.1777 148.131C56.3321 149.825 54.2789 151.97 51.0179 154.565ZM42.4534 147.679C43.2451 148.589 43.9389 149.066 44.5348 149.107C45.1307 149.149 45.8627 148.772 46.7309 147.978C47.6447 147.143 48.2986 146.355 48.6927 145.613C49.0897 144.828 49.4103 142.69 49.6544 139.2L50.1812 131.667C50.4252 128.177 50.4038 126.036 50.1168 125.247C49.8329 124.414 49.2951 123.542 48.5033 122.632C47.7571 121.681 47.0861 121.185 46.4902 121.144C45.8943 121.102 45.1395 121.498 44.2258 122.333C43.3575 123.127 42.7249 123.917 42.3279 124.702C41.9338 125.444 41.6147 127.56 41.3707 131.051L40.8439 138.584C40.5998 142.074 40.6198 144.236 40.9037 145.068C41.1906 145.858 41.7072 146.728 42.4534 147.679ZM76.4193 137.992L77.6962 138.082C78.5049 138.138 79.4681 137.821 80.5857 137.129C81.7489 136.398 82.5122 135.574 82.8756 134.659C83.239 133.743 83.4758 132.498 83.5859 130.923C83.696 129.348 83.6378 128.04 83.4113 126.997C83.1878 125.912 82.5495 124.948 81.4964 124.105C80.4859 123.264 79.4699 122.808 78.4484 122.737C77.4695 122.668 76.0901 123.128 74.3102 124.115C74.3397 125.529 74.3038 126.959 74.2026 128.406L72.0329 159.435L63.2224 158.819L65.1332 131.493C65.3832 127.918 65.3034 125.389 64.8938 123.906C64.5298 122.384 63.6289 120.588 62.1909 118.52L70.2317 113.629C71.2848 114.473 72.1759 115.797 72.9051 117.602C76.5709 115.334 79.1486 114.253 80.6383 114.357C82.128 114.461 84.109 115.797 86.5812 118.365C89.0534 120.933 90.7011 123.059 91.5244 124.742C91.9509 125.37 92.0407 127.451 91.7937 130.984C91.5466 134.516 91.1563 136.735 90.6226 137.638C89.5731 139.19 87.6456 141.066 84.8401 143.265C82.0345 145.464 79.8869 146.511 78.3972 146.407L75.8434 146.228L76.4193 137.992ZM104.31 116.012C104.863 116.051 106.079 117.013 107.957 118.898C109.836 120.783 110.751 122.066 110.703 122.747C110.659 123.385 108.663 125.32 104.716 128.551C100.769 131.782 98.5825 133.383 98.1569 133.353C98.0292 133.344 97.7461 133.111 97.3077 132.652C96.9118 132.197 96.7213 131.863 96.7362 131.65C96.7541 131.395 97.8957 129.443 100.161 125.795C97.948 123.801 96.8654 122.463 96.913 121.782C96.9606 121.101 98.0669 119.96 100.232 118.358C102.397 116.755 103.756 115.974 104.31 116.012ZM128.643 120.024C130.048 120.122 132.006 121.478 134.518 124.091C137.075 126.665 138.808 128.797 139.717 130.485C140.131 131.284 140.243 133.046 140.053 135.77C139.865 138.451 139.464 140.22 138.848 141.075C138.235 141.887 135.774 143.447 131.463 145.755C127.156 148.02 124.446 149.777 123.332 151.025C122.959 151.469 122.728 152.33 122.638 153.606L122.477 155.905L138.311 157.012L137.82 164.035L113.176 162.312L113.783 153.629C113.959 151.118 114.386 149.287 115.065 148.137C115.745 146.987 117.141 145.673 119.254 144.195C121.371 142.675 123.675 141.233 126.165 139.867C128.659 138.459 130.153 137.58 130.648 137.229C131.143 136.879 131.426 136.193 131.498 135.172C131.569 134.15 131.486 133.203 131.247 132.331C131.054 131.419 130.603 130.533 129.894 129.67C129.187 128.765 128.514 128.291 127.876 128.246C127.28 128.204 126.245 128.945 124.77 130.467C123.297 131.946 122.28 133.65 121.718 135.578L115.108 131.01C115.894 128.328 117.762 125.785 120.71 123.382C123.701 120.982 126.345 119.863 128.643 120.024ZM166.35 166.03L158.178 165.458L158.811 156.393L150.703 155.826L143.72 151.103C144.878 147.377 146.52 143.172 148.644 138.488C150.813 133.764 152.798 129.839 154.599 126.714C156.4 123.59 157.535 122.044 158.003 122.077C158.684 122.124 160.595 123.242 163.735 125.429C166.879 127.573 168.598 128.976 168.894 129.639L167.475 149.941L170.028 150.12L169.537 157.143L166.984 156.964L166.35 166.03ZM159.303 149.37L160.57 131.238C158.246 135.737 155.716 141.634 152.982 148.928L159.303 149.37Z" fill="white"/>
<path d="M36.1126 110.005L35.1767 117.628L26.9187 116.614L22.3949 153.458L13.6287 152.381L18.1525 115.538L9.89452 114.524L10.8305 106.901L36.1126 110.005ZM53.3549 153.842C50.0101 156.225 47.5755 157.323 46.0509 157.136C44.5264 156.949 42.4085 155.292 39.6974 152.165C37.0339 149 35.4487 146.506 34.942 144.681C34.6113 143.523 34.719 140.721 35.265 136.274L36.1853 128.778C36.7313 124.332 37.3048 121.586 37.9058 120.543C38.839 118.895 40.9779 116.879 44.3226 114.495C47.7149 112.075 50.1733 110.958 51.6979 111.145C53.2224 111.333 55.3165 113.008 57.9801 116.172C60.6912 119.299 62.3001 121.775 62.8068 123.6C63.1375 124.758 63.0298 127.561 62.4838 132.007L61.5635 139.503C61.0175 143.95 60.444 146.695 59.843 147.739C58.9099 149.387 56.7472 151.421 53.3549 153.842ZM45.1625 146.517C45.9055 147.467 46.5734 147.979 47.1663 148.052C47.7592 148.125 48.5099 147.787 49.4185 147.039C50.3747 146.254 51.069 145.501 51.5014 144.78C51.9389 144.017 52.3709 141.899 52.7973 138.427L53.7177 130.931C54.144 127.458 54.2346 125.32 53.9894 124.516C53.7495 123.67 53.258 122.771 52.515 121.82C51.8196 120.832 51.1754 120.302 50.5825 120.229C49.9896 120.156 49.2151 120.513 48.2589 121.298C47.3503 122.046 46.6772 122.802 46.2396 123.565C45.8073 124.285 45.3779 126.382 44.9515 129.855L44.0311 137.35C43.6048 140.823 43.5116 142.982 43.7516 143.829C43.9968 144.632 44.4671 145.528 45.1625 146.517ZM79.5888 138.621L80.8593 138.777C81.6639 138.876 82.6424 138.609 83.7947 137.977C84.9945 137.308 85.7999 136.525 86.2107 135.63C86.6215 134.735 86.9232 133.504 87.1155 131.937C87.3079 130.37 87.3183 129.06 87.1467 128.007C86.9802 126.912 86.3933 125.916 85.3858 125.018C84.4207 124.126 83.4299 123.617 82.4136 123.493C81.4395 123.373 80.038 123.76 78.2088 124.653C78.1643 126.066 78.0536 127.492 77.8768 128.932L74.0862 159.804L65.32 158.728L68.6583 131.54C69.095 127.983 69.1477 125.453 68.8163 123.951C68.5325 122.412 67.7267 120.572 66.399 118.431L74.6847 113.968C75.6922 114.865 76.5128 116.234 77.1466 118.074C80.926 116.002 83.5568 115.057 85.039 115.239C86.5212 115.421 88.4295 116.859 90.7639 119.553C93.0984 122.247 94.6326 124.456 95.3667 126.179C95.7597 126.829 95.7405 128.912 95.3089 132.427C94.8773 135.942 94.3714 138.136 93.7912 139.011C92.6619 140.506 90.6389 142.278 87.7221 144.327C84.8053 146.376 82.6058 147.31 81.1236 147.128L78.5826 146.816L79.5888 138.621ZM108.591 118.131C109.142 118.199 110.306 119.223 112.083 121.203C113.86 123.184 114.707 124.513 114.624 125.191C114.546 125.826 112.451 127.654 108.341 130.674C104.23 133.694 101.963 135.178 101.539 135.126C101.412 135.111 101.142 134.862 100.728 134.382C100.357 133.906 100.184 133.563 100.21 133.351C100.241 133.097 101.483 131.207 103.936 127.683C101.831 125.576 100.82 124.184 100.903 123.506C100.986 122.828 102.151 121.746 104.396 120.26C106.642 118.773 108.041 118.063 108.591 118.131ZM132.682 123.41C134.079 123.582 135.964 125.038 138.335 127.78C140.755 130.484 142.374 132.703 143.192 134.437C143.565 135.257 143.584 137.022 143.251 139.732C142.924 142.4 142.43 144.145 141.77 144.967C141.116 145.746 138.576 147.175 134.151 149.254C129.731 151.29 126.933 152.903 125.755 154.091C125.359 154.515 125.083 155.362 124.927 156.633L124.646 158.92L140.4 160.854L139.542 167.841L115.022 164.831L116.083 156.192C116.39 153.693 116.912 151.887 117.651 150.774C118.389 149.661 119.853 148.422 122.041 147.058C124.234 145.65 126.61 144.33 129.168 143.097C131.732 141.821 133.271 141.021 133.783 140.697C134.296 140.373 134.615 139.703 134.739 138.687C134.864 137.67 134.83 136.721 134.638 135.837C134.493 134.917 134.089 134.007 133.425 133.109C132.767 132.169 132.12 131.659 131.485 131.581C130.892 131.508 129.819 132.193 128.267 133.636C126.719 135.037 125.614 136.685 124.951 138.581L118.59 133.673C119.516 131.036 121.513 128.594 124.583 126.349C127.695 124.109 130.395 123.129 132.682 123.41ZM167.928 171.327L159.798 170.329L160.905 161.308L152.838 160.318L146.111 155.236C147.463 151.576 149.322 147.463 151.688 142.896C154.102 138.292 156.29 134.476 158.252 131.45C160.214 128.424 161.428 126.94 161.894 126.997C162.571 127.08 164.421 128.296 167.443 130.644C170.47 132.95 172.113 134.442 172.374 135.119L169.894 155.319L172.435 155.631L171.577 162.619L169.036 162.307L167.928 171.327ZM161.763 154.321L163.978 136.28C161.421 140.652 158.586 146.408 155.474 153.549L161.763 154.321Z" fill="#865746"/>
</svg>
